<svg xmlns="http://www.w3.org/2000/svg" version="1.1" xmlns:xlink="http://www.w3.org/1999/xlink" xmlns:svgjs="http://svgjs.com/svgjs" width="1920" height="1080" preserveAspectRatio="none" viewBox="0 0 1920 1080"><g mask="url(&quot;#SvgjsMask1224&quot;)" fill="none"><rect width="1920" height="1080" x="0" y="0" fill="url(#SvgjsLinearGradient1225)"></rect><path d="M0 0L833.71 0L0 279.43z" fill="rgba(255, 255, 255, .1)"></path><path d="M0 279.43L833.71 0L1129.66 0L0 501.5z" fill="rgba(255, 255, 255, .075)"></path><path d="M0 501.5L1129.66 0L1349.45 0L0 769.65z" fill="rgba(255, 255, 255, .05)"></path><path d="M0 769.65L1349.45 0L1721.5500000000002 0L0 875.71z" fill="rgba(255, 255, 255, .025)"></path><path d="M1920 1080L1670.25 1080L1920 1040.58z" fill="rgba(0, 0, 0, .1)"></path><path d="M1920 1040.58L1670.25 1080L901.19 1080L1920 465.5099999999999z" fill="rgba(0, 0, 0, .075)"></path><path d="M1920 465.51L901.19 1080L518.3100000000001 1080L1920 356.25z" fill="rgba(0, 0, 0, .05)"></path><path d="M1920 356.25L518.31 1080L220.07999999999993 1080L1920 203.85z" fill="rgba(0, 0, 0, .025)"></path></g><defs><mask id="SvgjsMask1224"><rect width="1920" height="1080" fill="#ffffff"></rect></mask><linearGradient x1="10.94%" y1="119.44%" x2="89.06%" y2="-19.44%" gradientUnits="userSpaceOnUse" id="SvgjsLinearGradient1225"><stop stop-color="rgba(39, 107, 186, 1)" offset="0"></stop><stop stop-color="rgba(0, 13, 27, 1)" offset="1"></stop></linearGradient></defs></svg>