<svg xmlns="http://www.w3.org/2000/svg" version="1.1" xmlns:xlink="http://www.w3.org/1999/xlink" xmlns:svgjs="http://svgjs.com/svgjs" width="1980" height="1080" preserveAspectRatio="none" viewBox="0 0 1980 1080"><g mask="url(&quot;#SvgjsMask1402&quot;)" fill="none"><rect width="1980" height="1080" x="0" y="0" fill="rgba(1, 10, 22, 1)"></rect><path d="M654 475L653 34" stroke-width="6" stroke="url(#SvgjsLinearGradient1403)" stroke-linecap="round" class="Up"></path><path d="M574 251L573 -63" stroke-width="8" stroke="url(#SvgjsLinearGradient1404)" stroke-linecap="round" class="Down"></path><path d="M890 188L889 638" stroke-width="6" stroke="url(#SvgjsLinearGradient1405)" stroke-linecap="round" class="Down"></path><path d="M920 7L919 -763" stroke-width="10" stroke="url(#SvgjsLinearGradient1406)" stroke-linecap="round" class="Up"></path><path d="M591 992L590 439" stroke-width="6" stroke="url(#SvgjsLinearGradient1407)" stroke-linecap="round" class="Down"></path><path d="M1540 1026L1539 728" stroke-width="8" stroke="url(#SvgjsLinearGradient1408)" stroke-linecap="round" class="Up"></path><path d="M116 260L115 -32" stroke-width="6" stroke="url(#SvgjsLinearGradient1406)" stroke-linecap="round" class="Up"></path><path d="M93 952L92 1517" stroke-width="8" stroke="url(#SvgjsLinearGradient1404)" stroke-linecap="round" class="Down"></path><path d="M1743 757L1742 1040" stroke-width="10" stroke="url(#SvgjsLinearGradient1403)" stroke-linecap="round" class="Up"></path><path d="M1334 687L1333 1260" stroke-width="6" stroke="url(#SvgjsLinearGradient1408)" stroke-linecap="round" class="Up"></path><path d="M1033 849L1032 1339" stroke-width="6" stroke="url(#SvgjsLinearGradient1407)" stroke-linecap="round" class="Down"></path><path d="M513 1043L512 1568" stroke-width="10" stroke="url(#SvgjsLinearGradient1405)" stroke-linecap="round" class="Down"></path><path d="M505 251L504 861" stroke-width="8" stroke="url(#SvgjsLinearGradient1405)" stroke-linecap="round" class="Down"></path><path d="M1552 305L1551 -238" stroke-width="6" stroke="url(#SvgjsLinearGradient1404)" stroke-linecap="round" class="Down"></path><path d="M206 498L205 1032" stroke-width="10" stroke="url(#SvgjsLinearGradient1403)" stroke-linecap="round" class="Up"></path><path d="M1088 959L1087 1248" stroke-width="6" stroke="url(#SvgjsLinearGradient1409)" stroke-linecap="round" class="Down"></path><path d="M812 954L811 182" stroke-width="6" stroke="url(#SvgjsLinearGradient1404)" stroke-linecap="round" class="Down"></path><path d="M1286 441L1285 122" stroke-width="10" stroke="url(#SvgjsLinearGradient1403)" stroke-linecap="round" class="Up"></path><path d="M624 979L623 1285" stroke-width="10" stroke="url(#SvgjsLinearGradient1410)" stroke-linecap="round" class="Up"></path><path d="M1845 560L1844 197" stroke-width="6" stroke="url(#SvgjsLinearGradient1405)" stroke-linecap="round" class="Down"></path><path d="M759 580L758 162" stroke-width="10" stroke="url(#SvgjsLinearGradient1409)" stroke-linecap="round" class="Down"></path><path d="M1138 828L1137 1459" stroke-width="6" stroke="url(#SvgjsLinearGradient1407)" stroke-linecap="round" class="Down"></path><path d="M308 733L307 344" stroke-width="10" stroke="url(#SvgjsLinearGradient1403)" stroke-linecap="round" class="Up"></path><path d="M652 363L651 -151" stroke-width="6" stroke="url(#SvgjsLinearGradient1408)" stroke-linecap="round" class="Up"></path><path d="M1022 868L1021 556" stroke-width="10" stroke="url(#SvgjsLinearGradient1409)" stroke-linecap="round" class="Down"></path><path d="M1188 152L1187 -539" stroke-width="10" stroke="url(#SvgjsLinearGradient1407)" stroke-linecap="round" class="Down"></path><path d="M62 26L61 -371" stroke-width="10" stroke="url(#SvgjsLinearGradient1408)" stroke-linecap="round" class="Up"></path><path d="M825 809L824 196" stroke-width="6" stroke="url(#SvgjsLinearGradient1406)" stroke-linecap="round" class="Up"></path><path d="M917 534L916 78" stroke-width="10" stroke="url(#SvgjsLinearGradient1410)" stroke-linecap="round" class="Up"></path><path d="M1646 769L1645 1346" stroke-width="6" stroke="url(#SvgjsLinearGradient1409)" stroke-linecap="round" class="Down"></path><path d="M996 824L995 121" stroke-width="6" stroke="url(#SvgjsLinearGradient1408)" stroke-linecap="round" class="Up"></path><path d="M653 903L652 366" stroke-width="10" stroke="url(#SvgjsLinearGradient1403)" stroke-linecap="round" class="Up"></path><path d="M132 700L131 -83" stroke-width="6" stroke="url(#SvgjsLinearGradient1405)" stroke-linecap="round" class="Down"></path><path d="M1784 590L1783 1150" stroke-width="6" stroke="url(#SvgjsLinearGradient1403)" stroke-linecap="round" class="Up"></path><path d="M1618 767L1617 1521" stroke-width="8" stroke="url(#SvgjsLinearGradient1410)" stroke-linecap="round" class="Up"></path><path d="M603 48L602 737" stroke-width="8" stroke="url(#SvgjsLinearGradient1410)" stroke-linecap="round" class="Up"></path><path d="M1170 335L1169 33" stroke-width="10" stroke="url(#SvgjsLinearGradient1405)" stroke-linecap="round" class="Down"></path><path d="M776 749L775 410" stroke-width="6" stroke="url(#SvgjsLinearGradient1407)" stroke-linecap="round" class="Down"></path><path d="M1639 313L1638 -139" stroke-width="8" stroke="url(#SvgjsLinearGradient1409)" stroke-linecap="round" class="Down"></path><path d="M463 552L462 -120" stroke-width="6" stroke="url(#SvgjsLinearGradient1403)" stroke-linecap="round" class="Up"></path><path d="M712 422L711 885" stroke-width="10" stroke="url(#SvgjsLinearGradient1403)" stroke-linecap="round" class="Up"></path><path d="M305 966L304 216" stroke-width="6" stroke="url(#SvgjsLinearGradient1408)" stroke-linecap="round" class="Up"></path><path d="M132 199L131 -92" stroke-width="10" stroke="url(#SvgjsLinearGradient1410)" stroke-linecap="round" class="Up"></path><path d="M208 975L207 1744" stroke-width="8" stroke="url(#SvgjsLinearGradient1410)" stroke-linecap="round" class="Up"></path><path d="M1365 236L1364 836" stroke-width="10" stroke="url(#SvgjsLinearGradient1406)" stroke-linecap="round" class="Up"></path><path d="M1831 171L1830 -168" stroke-width="6" stroke="url(#SvgjsLinearGradient1409)" stroke-linecap="round" class="Down"></path><path d="M1720 66L1719 845" stroke-width="6" stroke="url(#SvgjsLinearGradient1409)" stroke-linecap="round" class="Down"></path><path d="M1370 388L1369 -246" stroke-width="8" stroke="url(#SvgjsLinearGradient1409)" stroke-linecap="round" class="Down"></path><path d="M1953 993L1952 1772" stroke-width="10" stroke="url(#SvgjsLinearGradient1410)" stroke-linecap="round" class="Up"></path><path d="M1140 479L1139 1263" stroke-width="8" stroke="url(#SvgjsLinearGradient1410)" stroke-linecap="round" class="Up"></path></g><defs><mask id="SvgjsMask1402"><rect width="1980" height="1080" fill="#ffffff"></rect></mask><linearGradient x1="0%" y1="100%" x2="0%" y2="0%" id="SvgjsLinearGradient1403"><stop stop-color="rgba(0, 79, 2, 0)" offset="0"></stop><stop stop-color="rgba(0, 79, 2, 1)" offset="1"></stop></linearGradient><linearGradient x1="0%" y1="0%" x2="0%" y2="100%" id="SvgjsLinearGradient1404"><stop stop-color="rgba(255, 255, 255, 0)" offset="0"></stop><stop stop-color="rgba(255, 255, 255, 1)" offset="1"></stop></linearGradient><linearGradient x1="0%" y1="0%" x2="0%" y2="100%" id="SvgjsLinearGradient1405"><stop stop-color="rgba(203, 255, 196, 0)" offset="0"></stop><stop stop-color="rgba(203, 255, 196, 1)" offset="1"></stop></linearGradient><linearGradient x1="0%" y1="100%" x2="0%" y2="0%" id="SvgjsLinearGradient1406"><stop stop-color="rgba(255, 255, 255, 0)" offset="0"></stop><stop stop-color="rgba(255, 255, 255, 1)" offset="1"></stop></linearGradient><linearGradient x1="0%" y1="0%" x2="0%" y2="100%" id="SvgjsLinearGradient1407"><stop stop-color="rgba(0, 79, 2, 0)" offset="0"></stop><stop stop-color="rgba(0, 79, 2, 1)" offset="1"></stop></linearGradient><linearGradient x1="0%" y1="100%" x2="0%" y2="0%" id="SvgjsLinearGradient1408"><stop stop-color="rgba(203, 255, 196, 0)" offset="0"></stop><stop stop-color="rgba(203, 255, 196, 1)" offset="1"></stop></linearGradient><linearGradient x1="0%" y1="0%" x2="0%" y2="100%" id="SvgjsLinearGradient1409"><stop stop-color="rgba(56, 251, 4, 0)" offset="0"></stop><stop stop-color="rgba(56, 251, 4, 1)" offset="1"></stop></linearGradient><linearGradient x1="0%" y1="100%" x2="0%" y2="0%" id="SvgjsLinearGradient1410"><stop stop-color="rgba(56, 251, 4, 0)" offset="0"></stop><stop stop-color="rgba(56, 251, 4, 1)" offset="1"></stop></linearGradient></defs></svg>