<svg xmlns="http://www.w3.org/2000/svg" version="1.1" xmlns:xlink="http://www.w3.org/1999/xlink" xmlns:svgjs="http://svgjs.com/svgjs" width="1980" height="1080" preserveAspectRatio="none" viewBox="0 0 1980 1080"><g mask="url(&quot;#SvgjsMask1242&quot;)" fill="none"><rect width="1980" height="1080" x="0" y="0" fill="rgba(1, 10, 22, 1)"></rect><path d="M1920 371L1919 -84" stroke-width="6" stroke="url(#SvgjsLinearGradient1243)" stroke-linecap="round" class="Up"></path><path d="M1409 273L1408 -509" stroke-width="10" stroke="url(#SvgjsLinearGradient1244)" stroke-linecap="round" class="Down"></path><path d="M320 197L319 -610" stroke-width="10" stroke="url(#SvgjsLinearGradient1245)" stroke-linecap="round" class="Up"></path><path d="M665 1019L664 1724" stroke-width="10" stroke="url(#SvgjsLinearGradient1245)" stroke-linecap="round" class="Up"></path><path d="M464 544L463 1341" stroke-width="8" stroke="url(#SvgjsLinearGradient1246)" stroke-linecap="round" class="Down"></path><path d="M1137 863L1136 1548" stroke-width="10" stroke="url(#SvgjsLinearGradient1247)" stroke-linecap="round" class="Down"></path><path d="M1270 450L1269 1117" stroke-width="6" stroke="url(#SvgjsLinearGradient1246)" stroke-linecap="round" class="Down"></path><path d="M1209 1058L1208 1821" stroke-width="6" stroke="url(#SvgjsLinearGradient1247)" stroke-linecap="round" class="Down"></path><path d="M1953 138L1952 811" stroke-width="8" stroke="url(#SvgjsLinearGradient1243)" stroke-linecap="round" class="Up"></path><path d="M1303 159L1302 719" stroke-width="8" stroke="url(#SvgjsLinearGradient1245)" stroke-linecap="round" class="Up"></path><path d="M1023 168L1022 855" stroke-width="6" stroke="url(#SvgjsLinearGradient1246)" stroke-linecap="round" class="Down"></path><path d="M1226 69L1225 -267" stroke-width="8" stroke="url(#SvgjsLinearGradient1247)" stroke-linecap="round" class="Down"></path><path d="M159 984L158 185" stroke-width="10" stroke="url(#SvgjsLinearGradient1245)" stroke-linecap="round" class="Up"></path><path d="M1761 522L1760 -111" stroke-width="10" stroke="url(#SvgjsLinearGradient1247)" stroke-linecap="round" class="Down"></path><path d="M576 1022L575 1804" stroke-width="8" stroke="url(#SvgjsLinearGradient1243)" stroke-linecap="round" class="Up"></path><path d="M1304 415L1303 1080" stroke-width="6" stroke="url(#SvgjsLinearGradient1243)" stroke-linecap="round" class="Up"></path><path d="M165 820L164 1273" stroke-width="6" stroke="url(#SvgjsLinearGradient1245)" stroke-linecap="round" class="Up"></path><path d="M1209 1055L1208 488" stroke-width="6" stroke="url(#SvgjsLinearGradient1243)" stroke-linecap="round" class="Up"></path><path d="M1398 982L1397 1565" stroke-width="6" stroke="url(#SvgjsLinearGradient1244)" stroke-linecap="round" class="Down"></path><path d="M473 448L472 -40" stroke-width="8" stroke="url(#SvgjsLinearGradient1244)" stroke-linecap="round" class="Down"></path><path d="M336 782L335 1075" stroke-width="10" stroke="url(#SvgjsLinearGradient1243)" stroke-linecap="round" class="Up"></path><path d="M1760 201L1759 -292" stroke-width="8" stroke="url(#SvgjsLinearGradient1248)" stroke-linecap="round" class="Up"></path><path d="M1640 600L1639 174" stroke-width="10" stroke="url(#SvgjsLinearGradient1245)" stroke-linecap="round" class="Up"></path><path d="M860 867L859 258" stroke-width="6" stroke="url(#SvgjsLinearGradient1246)" stroke-linecap="round" class="Down"></path><path d="M1977 1039L1976 312" stroke-width="8" stroke="url(#SvgjsLinearGradient1248)" stroke-linecap="round" class="Up"></path><path d="M1187 377L1186 759" stroke-width="8" stroke="url(#SvgjsLinearGradient1244)" stroke-linecap="round" class="Down"></path><path d="M1467 431L1466 868" stroke-width="6" stroke="url(#SvgjsLinearGradient1244)" stroke-linecap="round" class="Down"></path><path d="M886 401L885 5" stroke-width="8" stroke="url(#SvgjsLinearGradient1247)" stroke-linecap="round" class="Down"></path><path d="M1595 488L1594 1063" stroke-width="10" stroke="url(#SvgjsLinearGradient1246)" stroke-linecap="round" class="Down"></path><path d="M529 691L528 1049" stroke-width="8" stroke="url(#SvgjsLinearGradient1244)" stroke-linecap="round" class="Down"></path><path d="M1591 526L1590 -125" stroke-width="10" stroke="url(#SvgjsLinearGradient1245)" stroke-linecap="round" class="Up"></path><path d="M1352 886L1351 401" stroke-width="10" stroke="url(#SvgjsLinearGradient1248)" stroke-linecap="round" class="Up"></path><path d="M675 487L674 873" stroke-width="10" stroke="url(#SvgjsLinearGradient1247)" stroke-linecap="round" class="Down"></path><path d="M16 1039L15 1763" stroke-width="10" stroke="url(#SvgjsLinearGradient1243)" stroke-linecap="round" class="Up"></path><path d="M1825 730L1824 335" stroke-width="10" stroke="url(#SvgjsLinearGradient1243)" stroke-linecap="round" class="Up"></path><path d="M1864 316L1863 -333" stroke-width="6" stroke="url(#SvgjsLinearGradient1243)" stroke-linecap="round" class="Up"></path><path d="M654 669L653 1351" stroke-width="10" stroke="url(#SvgjsLinearGradient1248)" stroke-linecap="round" class="Up"></path><path d="M546 734L545 1248" stroke-width="8" stroke="url(#SvgjsLinearGradient1245)" stroke-linecap="round" class="Up"></path><path d="M8 270L7 -186" stroke-width="8" stroke="url(#SvgjsLinearGradient1247)" stroke-linecap="round" class="Down"></path><path d="M327 791L326 0" stroke-width="8" stroke="url(#SvgjsLinearGradient1244)" stroke-linecap="round" class="Down"></path><path d="M1566 301L1565 -202" stroke-width="10" stroke="url(#SvgjsLinearGradient1245)" stroke-linecap="round" class="Up"></path><path d="M108 197L107 -322" stroke-width="10" stroke="url(#SvgjsLinearGradient1248)" stroke-linecap="round" class="Up"></path><path d="M1024 648L1023 1012" stroke-width="10" stroke="url(#SvgjsLinearGradient1244)" stroke-linecap="round" class="Down"></path><path d="M1820 307L1819 697" stroke-width="8" stroke="url(#SvgjsLinearGradient1248)" stroke-linecap="round" class="Up"></path><path d="M111 900L110 1652" stroke-width="6" stroke="url(#SvgjsLinearGradient1245)" stroke-linecap="round" class="Up"></path><path d="M652 1039L651 1733" stroke-width="10" stroke="url(#SvgjsLinearGradient1248)" stroke-linecap="round" class="Up"></path><path d="M1779 288L1778 968" stroke-width="10" stroke="url(#SvgjsLinearGradient1247)" stroke-linecap="round" class="Down"></path><path d="M1681 558L1680 962" stroke-width="10" stroke="url(#SvgjsLinearGradient1247)" stroke-linecap="round" class="Down"></path><path d="M1172 767L1171 1408" stroke-width="8" stroke="url(#SvgjsLinearGradient1246)" stroke-linecap="round" class="Down"></path><path d="M143 900L142 1652" stroke-width="8" stroke="url(#SvgjsLinearGradient1243)" stroke-linecap="round" class="Up"></path></g><defs><mask id="SvgjsMask1242"><rect width="1980" height="1080" fill="#ffffff"></rect></mask><linearGradient x1="0%" y1="100%" x2="0%" y2="0%" id="SvgjsLinearGradient1243"><stop stop-color="rgba(35, 103, 239, 0)" offset="0"></stop><stop stop-color="rgba(35, 103, 239, 1)" offset="1"></stop></linearGradient><linearGradient x1="0%" y1="0%" x2="0%" y2="100%" id="SvgjsLinearGradient1244"><stop stop-color="rgba(255, 255, 255, 0)" offset="0"></stop><stop stop-color="rgba(255, 255, 255, 1)" offset="1"></stop></linearGradient><linearGradient x1="0%" y1="100%" x2="0%" y2="0%" id="SvgjsLinearGradient1245"><stop stop-color="rgba(28, 83, 142, 0)" offset="0"></stop><stop stop-color="#1c538e" offset="1"></stop></linearGradient><linearGradient x1="0%" y1="0%" x2="0%" y2="100%" id="SvgjsLinearGradient1246"><stop stop-color="rgba(28, 83, 142, 0)" offset="0"></stop><stop stop-color="#1c538e" offset="1"></stop></linearGradient><linearGradient x1="0%" y1="0%" x2="0%" y2="100%" id="SvgjsLinearGradient1247"><stop stop-color="rgba(35, 103, 239, 0)" offset="0"></stop><stop stop-color="rgba(35, 103, 239, 1)" offset="1"></stop></linearGradient><linearGradient x1="0%" y1="100%" x2="0%" y2="0%" id="SvgjsLinearGradient1248"><stop stop-color="rgba(255, 255, 255, 0)" offset="0"></stop><stop stop-color="rgba(255, 255, 255, 1)" offset="1"></stop></linearGradient></defs></svg>